#!OML:ASF H:\Terrain\Patient Classification 1\Terrain2\Thursday\justin.ASF
:FULLY-SPECIFIED
:DEGREES
1985
root 9.08936 24.0169 14.4833 -535.39 -0.632199 -172.795
lowerback 11.6609 1.15511 8.26817
upperback 4.21698 1.76487 4.53235
thorax -1.94761 0.548798 -0.126363
lowerneck -11.521 1.41404 -10.3529
upperneck 40.9896 -2.79037 4.27327
head 16.9857 -3.94248 2.79286
rclavicle -1.35174e-014 -2.8625e-014
rhumerus -24.7259 -6.10378 -78.9253
rradius 37.0276
rwrist -12.7839
rhand -19.7742 12.7411
rfingers 7.12502
rthumb 6.5578 -17.1374
lclavicle -1.35174e-014 -2.8625e-014
lhumerus -34.9599 1.6682 88.3157
lradius 36.7351
lwrist 3.45531
lhand -20.8504 21.3516
lfingers 7.12502
lthumb 5.51879 51.2598
rfemur -13.7022 -5.12526 29.9214
rtibia 27.028
rfoot -14.965 6.09471
rtoes 21.8083
lfemur -25.2984 -2.23922 -12.0628
ltibia 34.8862
lfoot -12.1213 -4.3784
ltoes -15.6263
1986
root 9.08028 24.0097 14.4355 -535.593 -0.547939 -172.562
lowerback 11.7067 1.11146 8.27334
upperback 4.13579 1.71725 4.64806
thorax -2.06422 0.516341 -0.00301826
lowerneck -11.4597 1.50417 -10.4252
upperneck 41.1659 -2.78342 4.37174
head 17.0685 -3.97447 2.84682
rclavicle -4.37326e-015 -1.74931e-014
rhumerus -24.8399 -6.07441 -78.9323
rradius 36.5191
rwrist -12.631
rhand -20.1391 12.7496
rfingers 7.12502
rthumb 6.20549 -17.1395
lclavicle -4.37326e-015 -1.74931e-014
lhumerus -35.2006 1.94014 88.3178
lradius 36.3892
lwrist 3.02578
lhand -20.6432 20.7172
lfingers 7.12502
lthumb 5.7188 50.62
rfemur -13.3412 -5.20662 30.1284
rtibia 27.0734
rfoot -15.1954 6.07794
rtoes 20.9609
lfemur -24.8891 -1.7904 -11.9652
ltibia 34.7217
lfoot -10.7686 -4.73315
ltoes -11.8343
1987
root 9.06848 24.0009 14.3866 -535.777 -0.551052 -172.411
lowerback 11.6196 0.975008 8.21523
upperback 4.10588 1.51525 4.7816
thorax -2.06524 0.410071 0.195663
lowerneck -11.4154 1.62318 -10.6236
upperneck 41.2891 -2.63989 4.39461
head 17.1121 -3.97516 2.91207
rclavicle 3.93594e-014 1.1291e-013
rhumerus -24.7297 -5.95568 -78.9535
rradius 35.9134
rwrist -12.3303
rhand -20.7602 12.6259
rfingers 7.12502
rthumb 5.60591 -17.28
lclavicle 3.93594e-014 1.1291e-013
lhumerus -35.3652 2.54369 88.2692
lradius 35.9633
lwrist 2.52661
lhand -19.9714 19.9595
lfingers 7.12502
lthumb 6.36741 49.8437
rfemur -12.9958 -5.38681 30.2142
rtibia 27.1435
rfoot -15.3667 6.27341
rtoes 21.0495
lfemur -24.5 -1.24142 -11.9694
ltibia 34.5596
lfoot -9.76255 -5.38873
ltoes -6.32748
1988
root 9.05864 23.9924 14.3373 -535.795 -0.457771 -172.562
lowerback 11.3175 0.949065 7.88963
upperback 4.12961 1.4218 4.76966
thorax -1.89267 0.374227 0.377171
lowerneck -11.466 1.64517 -10.67
upperneck 41.3304 -2.60356 4.37996
head 17.1447 -3.97884 2.91776
rclavicle -1.19271e-015 -1.11319e-014
rhumerus -24.6058 -6.23217 -78.9711
rradius 35.4072
rwrist -11.9471
rhand -20.6893 12.4455
rfingers 7.12502
rthumb 5.67431 -17.4585
lclavicle -1.19271e-015 -1.11319e-014
lhumerus -35.3469 2.70228 88.2917
lradius 35.6663
lwrist 2.35241
lhand -19.4488 20.4143
lfingers 7.12502
lthumb 6.87189 50.2828
rfemur -12.771 -5.26234 29.97
rtibia 27.1576
rfoot -15.5555 6.35485
rtoes 21.5366
lfemur -24.2734 -0.612818 -12.2984
ltibia 34.4522
lfoot -9.20899 -5.90216
ltoes -1.03222
1989
root 9.05061 23.9844 14.2877 -535.81 -0.454523 -172.6
lowerback 10.9829 0.864948 7.65434
upperback 4.17001 1.24977 4.79576
thorax -1.68433 0.296545 0.557827
lowerneck -11.5335 1.69517 -10.6414
upperneck 41.313 -2.48151 4.29657
head 17.1365 -3.93561 2.8938
rclavicle -7.15625e-015 -3.97569e-014
rhumerus -24.3864 -6.4794 -79.0307
rradius 34.9636
rwrist -11.5376
rhand -20.2841 12.5204
rfingers 7.12502
rthumb 6.06551 -17.3727
lclavicle -7.15625e-015 -3.97569e-014
lhumerus -35.2491 2.83849 88.3299
lradius 35.4606
lwrist 2.29811
lhand -19.0509 20.7959
lfingers 7.12502
lthumb 7.25601 50.6515
rfemur -12.5123 -5.03103 29.8676
rtibia 27.107
rfoot -15.726 6.19329
rtoes 21.7211
lfemur -24.0398 -0.483377 -12.4311
ltibia 34.4099
lfoot -9.48026 -6.02864
ltoes 1.10676
1990
root 9.0403 23.9794 14.2399 -535.923 -0.479458 -172.252
lowerback 10.8214 0.761061 7.82131
upperback 4.15745 1.09853 4.9175
thorax -1.61192 0.216836 0.611801
lowerneck -11.5195 1.77675 -10.5762
upperneck 41.3786 -2.39416 4.23052
head 17.157 -3.91605 2.86307
rclavicle -5.36719e-015 -1.11319e-014
rhumerus -24.2542 -6.73487 -79.0845
rradius 34.5274
rwrist -11.1418
rhand -19.8048 12.4963
rfingers 7.12502
rthumb 6.52827 -17.3831
lclavicle -5.36719e-015 -1.11319e-014
lhumerus -35.2878 2.9869 88.3512
lradius 35.2917
lwrist 2.21589
lhand -19.0079 20.3888
lfingers 7.12502
lthumb 7.29755 50.2429
rfemur -12.1741 -5.02387 30.1841
rtibia 27.0385
rfoot -15.8215 6.14279
rtoes 21.646
lfemur -23.6656 -0.561771 -12.1083
ltibia 34.3866
lfoot -10.3117 -6.09041
ltoes 0.760792
1991
root 9.02835 23.9784 14.1907 -536.06 -0.397682 -172.008
lowerback 10.7845 0.853553 8.05123
upperback 4.11712 1.24878 4.86988
thorax -1.61868 0.294878 0.417604
lowerneck -11.4621 1.66909 -10.3644
upperneck 41.4208 -2.70716 4.31272
head 17.1995 -4.00946 2.80793
rclavicle -8.74653e-015 -9.54166e-015
rhumerus -24.4374 -7.50769 -79.0677
rradius 34.1907
rwrist -10.9761
rhand -19.1069 12.351
rfingers 7.12502
rthumb 7.20193 -17.5065
lclavicle -8.74653e-015 -9.54166e-015
lhumerus -35.3002 2.43108 88.4519
lradius 35.0531
lwrist 2.27424
lhand -19.4805 20.1825
lfingers 7.12502
lthumb 6.84136 50.052
rfemur -11.8221 -5.15754 30.3735
rtibia 26.9743
rfoot -15.8954 6.3018
rtoes 21.3293
lfemur -23.2438 -0.548499 -11.9273
ltibia 34.3542
lfoot -10.9874 -6.00329
ltoes 0.745841
1992
root 9.01469 23.9752 14.1382 -536.186 -0.350758 -172.179
lowerback 10.647 0.895246 7.83128
upperback 4.12898 1.28549 4.75382
thorax -1.5353 0.325028 0.414178
lowerneck -11.4781 1.57542 -10.2734
upperneck 41.4162 -2.92491 4.40282
head 17.226 -4.07324 2.79509
rclavicle -1.21259e-014 -1.11319e-014
rhumerus -24.5675 -7.97002 -79.0754
rradius 33.8812
rwrist -11.0568
rhand -18.651 12.5964
rfingers 7.12502
rthumb 7.64198 -17.2455
lclavicle -1.21259e-014 -1.11319e-014
lhumerus -35.2391 2.11346 88.5449
lradius 34.7257
lwrist 2.25188
lhand -19.4131 19.7694
lfingers 7.12502
lthumb 6.9064 49.6367
rfemur -11.4481 -5.12394 30.1
rtibia 26.9211
rfoot -16.0528 6.28676
rtoes 20.715
lfemur -22.8314 -0.495407 -12.241
ltibia 34.3127
lfoot -11.3264 -5.80414
ltoes 0.37025
1993
root 8.99692 23.9701 14.0906 -536.233 -0.353414 -172.443
lowerback 10.4439 0.74286 7.33766
upperback 4.03338 1.05141 4.72413
thorax -1.55176 0.21753 0.683328
lowerneck -11.3419 1.7255 -10.2118
upperneck 41.5087 -2.80128 4.36542
head 17.2248 -4.05127 2.78167
rclavicle 4.77083e-015 5.56597e-015
rhumerus -24.6434 -7.97201 -79.1364
rradius 33.3971
rwrist -10.7577
rhand -18.854 12.7675
rfingers 7.12502
rthumb 7.44607 -17.0815
lclavicle 4.77083e-015 5.56597e-015
lhumerus -35.4777 2.51939 88.4684
lradius 34.4755
lwrist 2.04856
lhand -18.9118 19.2358
lfingers 7.12502
lthumb 7.39029 49.0867
rfemur -11.1773 -4.97998 29.7156
rtibia 26.8965
rfoot -16.2389 6.1447
rtoes 20.1653
lfemur -22.4932 -0.602204 -12.6388
ltibia 34.2438
lfoot -11.5525 -5.47575
ltoes -0.586559
1994
root 8.98041 23.9617 14.0461 -536.288 -0.360998 -172.401
lowerback 10.2872 0.653475 7.30633
upperback 3.97976 0.933473 4.65817
thorax -1.52742 0.166802 0.645387
lowerneck -11.33 1.80288 -10.075
upperneck 41.592 -2.83166 4.49454
head 17.2696 -4.04482 2.80809
rclavicle 7.55382e-015 3.65764e-014
rhumerus -24.5952 -8.48252 -79.2239
rradius 32.7934
rwrist -10.0967
rhand -19.5263 12.6298
rfingers 7.12502
rthumb 6.79706 -17.2411
lclavicle 7.55382e-015 3.65764e-014
lhumerus -35.5178 2.6178 88.3214
lradius 34.2412
lwrist 1.89704
lhand -18.6541 19.7761
lfingers 7.12502
lthumb 7.63899 49.6182
rfemur -10.9227 -4.85832 29.678
rtibia 26.8974
rfoot -16.3789 6.06918
rtoes 20.0034
lfemur -22.1507 -1.18454 -12.632
ltibia 34.1687
lfoot -11.8447 -4.7824
ltoes -1.42277
1995
root 8.97036 23.9524 13.9963 -536.491 -0.308769 -172.197
lowerback 10.2216 0.669524 7.32152
upperback 3.95593 0.95003 4.70829
thorax -1.51599 0.173704 0.687698
lowerneck -11.2555 1.82882 -10.1456
upperneck 41.6927 -2.9605 4.74474
head 17.3259 -4.10082 2.91108
rclavicle -7.15625e-015 -3.18055e-014
rhumerus -24.6438 -9.01843 -79.1363
rradius 32.2613
rwrist -9.64592
rhand -20.0612 12.5247
rfingers 7.12502
rthumb 6.28072 -17.3622
lclavicle -7.15625e-015 -3.18055e-014
lhumerus -35.5042 2.7203 88.3053
lradius 33.8956
lwrist 1.65042
lhand -18.1683 19.9013
lfingers 7.12502
lthumb 8.10788 49.7258
rfemur -10.4793 -4.51128 29.8473
rtibia 26.8871
rfoot -16.5563 5.80689
rtoes 20.148
lfemur -21.7101 -1.60643 -12.4511
ltibia 34.1265
lfoot -11.9658 -4.29789
ltoes -2.20005
1996
root 8.96289 23.9468 13.9477 -536.644 -0.300071 -172.175
lowerback 10.159 0.692205 7.0988
upperback 3.91097 0.965776 4.74336
thorax -1.53543 0.182466 0.846003
lowerneck -11.1551 1.82296 -10.2397
upperneck 41.7576 -3.08436 4.8984
head 17.3551 -4.16738 2.9749
rclavicle -4.17448e-015 -3.26007e-014
rhumerus -24.815 -9.33474 -79.0217
rradius 32.0043
rwrist -9.46269
rhand -20.1778 12.3088
rfingers 7.12502
rthumb 6.16818 -17.5814
lclavicle -4.17448e-015 -3.26007e-014
lhumerus -35.5538 2.81622 88.3197
lradius 33.5718
lwrist 1.32451
lhand -17.6054 19.5689
lfingers 7.12502
lthumb 8.65115 49.3717
rfemur -10.0802 -4.08848 29.846
rtibia 26.8325
rfoot -16.7866 5.39488
rtoes 20.6411
lfemur -21.4097 -1.36244 -12.5153
ltibia 34.1018
lfoot -12.0795 -4.56291
ltoes -2.64307
1997
root 8.95342 23.9429 13.9051 -536.645 -0.357308 -172.174
lowerback 10.0287 0.63972 6.92024
upperback 3.85433 0.88525 4.73414
thorax -1.53132 0.147353 0.944388
lowerneck -11.1572 1.86514 -10.279
upperneck 41.7856 -3.09243 5.04879
head 17.3746 -4.16702 3.04887
rclavicle 8.94531e-015 3.18055e-014
rhumerus -24.9166 -9.43098 -79.0773
rradius 31.796
rwrist -9.5426
rhand -19.6547 12.514
rfingers 7.12502
rthumb 6.67313 -17.3609
lclavicle 8.94531e-015 3.18055e-014
lhumerus -35.6309 2.85385 88.2842
lradius 33.4807
lwrist 1.17289
lhand -17.6093 19.574
lfingers 7.12502
lthumb 8.64736 49.3769
rfemur -9.87668 -3.88422 29.8404
rtibia 26.7421
rfoot -16.9958 4.99029
rtoes 20.7467
lfemur -21.2522 -1.13661 -12.589
ltibia 34.0808
lfoot -12.5207 -4.91223
ltoes -3.10984
